<svg id="Layer_1" data-name="Layer 1" xmlns="http://www.w3.org/2000/svg" viewBox="0 0 16 16"><defs><style>.cls-1{fill:#f6f4f4;fill-rule:evenodd;}</style></defs><title>close</title><path class="cls-1" d="M3.71,2.39l8.9,8.9a1.56,1.56,0,0,1-.13,2.19h0a1.56,1.56,0,0,1-2.19.13l-8.9-8.9a1.56,1.56,0,0,1,.13-2.19h0A1.56,1.56,0,0,1,3.71,2.39Z"/><path class="cls-1" d="M10.29,2.39l-8.9,8.9a1.56,1.56,0,0,0,.13,2.19h0a1.56,1.56,0,0,0,2.19.13l8.9-8.9a1.56,1.56,0,0,0-.13-2.19h0A1.56,1.56,0,0,0,10.29,2.39Z"/></svg>