<?xml version="1.0" encoding="utf-8"?>
<!-- Generator: Adobe Illustrator 24.0.1, SVG Export Plug-In . SVG Version: 6.00 Build 0)  -->
<svg version="1.1" id="aab721b6-4aa1-4d02-a3e3-167256aa258c"
	 xmlns="http://www.w3.org/2000/svg" xmlns:xlink="http://www.w3.org/1999/xlink" x="0px" y="0px" viewBox="0 0 980 489.5"
	 style="enable-background:new 0 0 980 489.5;" xml:space="preserve">
<style type="text/css">
	.st0{fill:#6C63FF;}
	.st1{fill:#3F3D56;}
	.st2{fill:#FFFFFF;}
	.st3{opacity:0.4;}
	.st4{fill:#F6F4F4;}
</style>
<path class="st0" d="M207.1,0c-26.6,0-53,5.1-77.7,15.1c-1,0.4-2,0.8-3,1.2C49.7,48.7-0.1,123.8,0,207.1V433c0,5,4,9,9,9l0.2,0
	c173.5,31.5,342.1,47.5,501.4,47.5c2.4,0,4.8,0,7.2,0c156.6-0.5,309-16.4,453.1-47.4l0.2,0c5,0,9-4,9-9V9c0-5-4-9-9-9L207.1,0z"/>
<path id="f4300551-56ef-4356-8f30-d0080b223343" class="st1" d="M745.8,180.2c-3.3,0.1-5.9,2.8-5.8,6c0.1,3.2,2.6,5.8,5.8,5.8h149.1
	c3.3,0.1,6-2.6,6-5.8c0.1-3.3-2.6-6-5.8-6l0,0c-0.1,0-0.1,0-0.2,0H745.8z"/>
<path class="st2" d="M928.7,178.5c-0.5,0.5-0.5,1.2,0,1.7c0,0,0,0,0,0l5,5h-12.4c-0.6,0-1.2,0.5-1.2,1.2c0,0.6,0.5,1.2,1.2,1.2h12.4
	l-5,5c-0.5,0.5-0.5,1.2,0,1.7c0.5,0.5,1.2,0.5,1.7,0c0,0,0,0,0,0l7-7c0.5-0.5,0.5-1.2,0-1.7l-7-7
	C929.9,178.1,929.2,178.1,928.7,178.5L928.7,178.5z"/>
<path class="st2" d="M711.9,178.5c0.5,0.5,0.5,1.2,0,1.7c0,0,0,0,0,0l-5,5h12.4c0.6,0,1.2,0.5,1.2,1.2s-0.5,1.2-1.2,1.2c0,0,0,0,0,0
	h-12.4l5,5c0.5,0.5,0.5,1.2,0,1.7c-0.5,0.5-1.2,0.5-1.7,0l0,0l-7-7c-0.5-0.5-0.5-1.2,0-1.7l7-7C710.7,178.1,711.5,178.1,711.9,178.5
	C711.9,178.5,711.9,178.5,711.9,178.5z"/>
<g class="st3">
	<circle class="st2" cx="751.8" cy="50.4" r="6.4"/>
	<circle class="st2" cx="778.4" cy="50.4" r="6.4"/>
	<circle class="st2" cx="805.1" cy="50.4" r="6.4"/>
	<circle class="st2" cx="831.7" cy="50.4" r="6.4"/>
	<circle class="st2" cx="858.3" cy="50.4" r="6.4"/>
	<circle class="st2" cx="884.9" cy="50.4" r="6.4"/>
	<circle class="st2" cx="911.6" cy="50.4" r="6.4"/>
	<circle class="st2" cx="751.8" cy="70.6" r="6.4"/>
	<circle class="st2" cx="778.4" cy="70.6" r="6.4"/>
	<circle class="st2" cx="805.1" cy="70.6" r="6.4"/>
	<circle class="st2" cx="831.7" cy="70.6" r="6.4"/>
	<circle class="st2" cx="858.3" cy="70.6" r="6.4"/>
	<circle class="st2" cx="884.9" cy="70.6" r="6.4"/>
	<circle class="st2" cx="911.6" cy="70.6" r="6.4"/>
	<circle class="st2" cx="751.8" cy="90.9" r="6.4"/>
	<circle class="st2" cx="778.4" cy="90.9" r="6.4"/>
	<circle class="st2" cx="805.1" cy="90.9" r="6.4"/>
	<circle class="st2" cx="831.7" cy="90.9" r="6.4"/>
	<circle class="st2" cx="858.3" cy="90.9" r="6.4"/>
	<circle class="st2" cx="884.9" cy="90.9" r="6.4"/>
	<circle class="st2" cx="911.6" cy="90.9" r="6.4"/>
	<circle class="st2" cx="751.8" cy="111.1" r="6.4"/>
	<circle class="st2" cx="778.4" cy="111.1" r="6.4"/>
	<circle class="st2" cx="751.8" cy="131.3" r="6.4"/>
	<circle class="st2" cx="778.4" cy="131.3" r="6.4"/>
	<circle class="st2" cx="805.1" cy="131.3" r="6.4"/>
	<circle class="st2" cx="805.1" cy="111.1" r="6.4"/>
	<circle class="st2" cx="831.7" cy="111.1" r="6.4"/>
	<circle class="st2" cx="858.3" cy="111.1" r="6.4"/>
	<circle class="st2" cx="884.9" cy="111.1" r="6.4"/>
	<circle class="st2" cx="911.6" cy="111.1" r="6.4"/>
</g>
<path class="st1" d="M660.2,375.5c-19.5,0-35.3-15.8-35.3-35.3s15.8-35.3,35.3-35.3s35.3,15.8,35.3,35.3
	C695.4,359.7,679.6,375.4,660.2,375.5z M660.2,306.9c-18.4,0-33.3,14.9-33.3,33.3s14.9,33.3,33.3,33.3s33.3-14.9,33.3-33.3
	C693.4,321.8,678.5,306.9,660.2,306.9z"/>
<path class="st4" d="M673.7,336.8h-10.1v-10.1c0-1.9-1.5-3.4-3.4-3.4c-1.9,0-3.4,1.5-3.4,3.4v10.1h-10.1c-1.9,0-3.4,1.5-3.4,3.4
	c0,1.9,1.5,3.4,3.4,3.4h10.1v10.1c0,1.9,1.5,3.4,3.4,3.4c1.9,0,3.4-1.5,3.4-3.4v-10.1h10.1c1.9,0,3.4-1.5,3.4-3.4
	C677.1,338.3,675.5,336.8,673.7,336.8L673.7,336.8L673.7,336.8z"/>
<g class="st3">
	<circle class="st2" cx="54" cy="374.8" r="5"/>
	<circle class="st2" cx="54" cy="353.8" r="5"/>
	<circle class="st2" cx="54" cy="332.9" r="5"/>
	<circle class="st2" cx="54" cy="312" r="5"/>
	<circle class="st2" cx="54" cy="291" r="5"/>
	<circle class="st2" cx="54" cy="270.1" r="5"/>
	<circle class="st2" cx="54" cy="249.2" r="5"/>
	<circle class="st2" cx="69.9" cy="374.8" r="5"/>
	<circle class="st2" cx="69.9" cy="353.8" r="5"/>
	<circle class="st2" cx="69.9" cy="332.9" r="5"/>
	<circle class="st2" cx="69.9" cy="312" r="5"/>
	<circle class="st2" cx="69.9" cy="291" r="5"/>
	<circle class="st2" cx="69.9" cy="270.1" r="5"/>
	<circle class="st2" cx="69.9" cy="249.2" r="5"/>
	<circle class="st2" cx="85.8" cy="374.8" r="5"/>
	<circle class="st2" cx="85.8" cy="353.8" r="5"/>
	<circle class="st2" cx="85.8" cy="332.9" r="5"/>
	<circle class="st2" cx="85.8" cy="312" r="5"/>
	<circle class="st2" cx="85.8" cy="291" r="5"/>
	<circle class="st2" cx="85.8" cy="270.1" r="5"/>
	<circle class="st2" cx="85.8" cy="249.2" r="5"/>
	<circle class="st2" cx="101.8" cy="374.8" r="5"/>
	<circle class="st2" cx="101.8" cy="353.8" r="5"/>
	<circle class="st2" cx="117.7" cy="374.8" r="5"/>
	<circle class="st2" cx="117.7" cy="353.8" r="5"/>
	<circle class="st2" cx="117.7" cy="332.9" r="5"/>
	<circle class="st2" cx="101.8" cy="332.9" r="5"/>
	<circle class="st2" cx="101.8" cy="312" r="5"/>
	<circle class="st2" cx="101.8" cy="291" r="5"/>
	<circle class="st2" cx="101.8" cy="270.1" r="5"/>
	<circle class="st2" cx="101.8" cy="249.2" r="5"/>
</g>
<path class="st1" d="M497.4,33H163.7c-3.4,0-6.2,2.8-6.2,6.2v285.4c0,3.4,2.8,6.2,6.2,6.2h333.7c3.4,0,6.2-2.8,6.2-6.2V39.2
	C503.6,35.8,500.8,33,497.4,33z M501.1,324.6c0,2-1.7,3.7-3.7,3.7H163.7c-2,0-3.7-1.7-3.7-3.7V39.2c0-2,1.7-3.7,3.7-3.7h333.7
	c2,0,3.7,1.7,3.7,3.7V324.6z"/>
<path class="st4" d="M240.7,280c0,0.4,0,0.9,0,1.3c-0.7,13.9-12.6,24.6-26.5,23.8c-12.9-0.7-23.2-11-23.8-23.8c0-0.4,0-0.9,0-1.3
	c0-13.9,11.3-25.2,25.2-25.2S240.7,266.1,240.7,280z"/>
<path class="st1" d="M471.5,263.2H273.7c-2.3,0-4.2,1.9-4.2,4.2c0,2.3,1.9,4.2,4.2,4.2h197.8c2.3,0,4.2-1.9,4.2-4.2
	C475.7,265.1,473.8,263.2,471.5,263.2z"/>
<path class="st4" d="M358.8,288.4h-85.1c-2.3,0-4.2,1.9-4.2,4.2c0,2.3,1.9,4.2,4.2,4.2h85.1c2.3,0,4.2-1.9,4.2-4.2
	C363,290.3,361.1,288.4,358.8,288.4C358.8,288.4,358.8,288.4,358.8,288.4z"/>
<path class="st4" d="M576.7,233.6H243c-4.7,0-8.5-3.8-8.5-8.5V78.6c0-4.7,3.8-8.5,8.5-8.5h333.7c4.7,0,8.5,3.8,8.5,8.5V225
	C585.2,229.8,581.4,233.6,576.7,233.6z M243,73c-3.1,0-5.5,2.5-5.5,5.5V225c0,3.1,2.5,5.5,5.5,5.5h333.7c3.1,0,5.5-2.5,5.5-5.5V78.6
	c0-3.1-2.5-5.5-5.5-5.5H243z"/>
<path class="st4" d="M310.9,123.4c-2.3,0-4.2,1.9-4.2,4.2c0,2.3,1.9,4.2,4.2,4.2c0,0,0,0,0,0h197.8c2.3,0,4.2-1.9,4.2-4.2
	c0-2.3-1.9-4.2-4.2-4.2c0,0,0,0,0,0H310.9z"/>
<path class="st4" d="M310.9,147.8c-2.3,0-4.2,1.9-4.2,4.2s1.9,4.2,4.2,4.2h197.8c2.3,0,4.2-1.9,4.2-4.2s-1.9-4.2-4.2-4.2H310.9z"/>
<path class="st4" d="M310.9,171.8c-2.3,0-4.2,1.9-4.2,4.2c0,2.3,1.9,4.2,4.2,4.2H396c2.3,0,4.2-1.9,4.2-4.2s-1.9-4.2-4.2-4.2
	L310.9,171.8z"/>
<path class="st4" d="M631.7,295.6l-33.5-47.3l10.9,2.3c0.8,0.2,1.6-0.4,1.8-1.2c0.2-0.8-0.4-1.6-1.2-1.8l0,0l-16.2-3.4l-2.2,16.4
	c-0.1,0.8,0.5,1.6,1.3,1.7s1.6-0.5,1.7-1.3l0,0l1.5-11l33.5,47.3c0.5,0.7,1.4,0.8,2.1,0.4S632.2,296.3,631.7,295.6L631.7,295.6z"/>
<path class="st1" d="M449.7,433.3H211.4c-2.4,0-4.4-2-4.4-4.4v-59.1c0-2.4,2-4.4,4.4-4.4h238.3c2.4,0,4.4,2,4.4,4.4v59.1
	C454.1,431.3,452.1,433.3,449.7,433.3z M211.4,367.2c-1.5,0-2.6,1.2-2.6,2.6v59.1c0,1.5,1.2,2.6,2.6,2.6h238.3
	c1.5,0,2.6-1.2,2.6-2.6v-59.1c0-1.5-1.2-2.6-2.6-2.6L211.4,367.2z"/>
<ellipse transform="matrix(0.1602 -0.9871 0.9871 0.1602 -183.3273 578.7045)" class="st4" cx="248.4" cy="397.1" rx="18" ry="18"/>
<path class="st4" d="M289.9,385.1c-1.7,0-3,1.3-3,3s1.3,3,3,3c0,0,0,0,0,0h141.2c1.7,0,3-1.3,3-3c0-1.7-1.3-3-3-3c0,0,0,0,0,0H289.9
	z"/>
<path class="st4" d="M289.9,403.1c-1.7,0-3,1.3-3,3s1.3,3,3,3c0,0,0,0,0,0h60.8c1.7,0,3-1.3,3-3s-1.3-3-3-3c0,0,0,0,0,0H289.9z"/>
<path class="st1" d="M764,222.8h105.9c2.4,0,4.4,2,4.4,4.4v110.3c0,2.4-2,4.4-4.4,4.4H764c-2.4,0-4.4-2-4.4-4.4V227.2
	C759.6,224.7,761.6,222.8,764,222.8z M869.9,340.1c1.5,0,2.6-1.2,2.6-2.6V227.2c0-1.5-1.2-2.6-2.6-2.6H764c-1.5,0-2.6,1.2-2.6,2.6
	v110.3c0,1.5,1.2,2.6,2.6,2.6L869.9,340.1z"/>
<path class="st4" d="M847.4,319.1c1.7,0,3-1.3,3-3s-1.3-3-3-3h-60.8c-1.7,0-3,1.3-3,3s1.3,3,3,3H847.4z"/>
<path class="st4" d="M847.4,301.5c1.7,0,3-1.3,3-3c0-1.7-1.3-3-3-3c0,0,0,0,0,0h-60.8c-1.7,0-3,1.3-3,3c0,1.7,1.3,3,3,3c0,0,0,0,0,0
	H847.4z"/>
<path class="st4" d="M817,245.5c10.4,0,18.9,8.4,18.9,18.9c0,10.4-8.4,18.9-18.9,18.9c-10.4,0-18.9-8.4-18.9-18.9
	C798.1,253.9,806.6,245.5,817,245.5z"/>
</svg>
