<?xml version="1.0" encoding="utf-8"?>
<!-- Generator: Adobe Illustrator 24.0.1, SVG Export Plug-In . SVG Version: 6.00 Build 0)  -->
<svg version="1.1" id="e4ebe004-ac85-4249-bdf7-a9685d9ba22f"
	 xmlns="http://www.w3.org/2000/svg" xmlns:xlink="http://www.w3.org/1999/xlink" x="0px" y="0px" viewBox="0 0 820 725.2"
	 style="enable-background:new 0 0 820 725.2;" xml:space="preserve">
<style type="text/css">
	.st0{fill:#F6F4F4;}
	.st1{fill:#3F3D56;}
	.st2{fill:#6C63FF;}
	.st3{fill:none;stroke:#3F3D56;stroke-width:2;stroke-miterlimit:10;}
	.st4{opacity:0.1;enable-background:new    ;}
	.st5{fill:#2F2E41;}
	.st6{fill:#FFB9B9;}
	.st7{opacity:5.000000e-02;enable-background:new    ;}
	.st8{fill:#3F3D56;stroke:#6C63FF;stroke-miterlimit:10;}
	.st9{opacity:0.8;}
</style>
<title>voice interface</title>
<circle class="st0" cx="426.2" cy="350.3" r="350.3"/>
<path class="st1" d="M199.4,597.8c-22.6,34.6-16.4,78.6-16.4,78.6s42.8-12.1,65.3-46.7s16.4-78.6,16.4-78.6S222,563.2,199.4,597.8z"
	/>
<path class="st2" d="M182.9,676c0,0-0.5-0.1-1.6-0.3c-0.8-0.2-1.9-0.4-3.3-0.7c-12.1-2.9-44.3-12.5-65.4-37.9
	c-26.4-31.8-25.3-76.2-25.3-76.2s40.3,6.6,66.9,35.1c1.2,1.2,2.3,2.5,3.4,3.8c22.9,27.7,25.1,64.9,25.3,74.1
	C182.9,675.3,182.9,676,182.9,676z"/>
<path class="st3" d="M166.7,597.8c22.6,34.6,16.4,78.6,16.4,78.6s-42.8-12.1-65.3-46.7s-16.4-78.6-16.4-78.6
	S144.1,563.2,166.7,597.8z"/>
<path class="st4" d="M182.9,673.9c-0.6,0.7-1.1,1.3-1.6,1.8c-1,1.1-1.5,1.7-1.5,1.7s-0.7-0.8-1.8-2.4c-6.1-8.5-25.7-38.7-24.2-73.6
	c0.1-1.8,0.2-3.6,0.4-5.4c1.2,1.2,2.3,2.5,3.4,3.8C180.6,627.5,182.7,664.7,182.9,673.9z"/>
<path class="st2" d="M216.4,603.9c-1.8,41.3-32.4,73.5-32.4,73.5s-27.7-34.7-26-76s32.4-73.5,32.4-73.5S218.1,562.6,216.4,603.9z"/>
<line class="st3" x1="183.9" y1="676.2" x2="190.7" y2="529.6"/>
<ellipse class="st1" cx="410" cy="691.7" rx="410" ry="33.5"/>
<path class="st5" d="M475.2,289.6c-10.2,3.1-19.5,10.4-21.6,19.9c-1,4.4-0.4,9-1.2,13.5c-1.9,10.3-10.9,18.2-19.2,25.5
	s-16.8,15.8-17.4,26.3c-0.7,11.4,8.5,22.1,6.9,33.5c-1.8,13.2-17.3,21.8-21.1,34.6c-2.6,8.6,0.6,17.8,5.7,25.4
	c9.8,14.4,26.6,24.2,44.4,29.5s36.9,6.4,55.6,6.5c22.9,0.2,47.7-1.6,64.9-15.2c9.8-7.8,16-18.7,17.2-30.5c1.6-15.8-5.7-32-0.6-47.2
	c3.2-9.5,11.1-18.3,9.9-28.2c-1.2-9.7-10.5-16.5-17-24.4c-6-7.3-9.7-15.9-13.2-24.4l-12.2-29.1c-2.4-5.7-5-11.7-10.4-15.5
	c-10-7-26.1-5.6-37.9-4.2C497.2,287.1,485.6,286.4,475.2,289.6z"/>
<path class="st6" d="M479,384.1c0,0,5.4,17.6-35.2,37.9c-40.6,20.3,4.1,42,4.1,42l47.4,10.8c0,0,48.8-6.8,54.2-14.9
	s14.9-35.2,12.2-39.3c-2-2.9-4.3-5.6-6.8-8.1c0,0-32.5-5.4-31.2-20.3S479,384.1,479,384.1z"/>
<path class="st4" d="M479,384.1c0,0,5.4,17.6-35.2,37.9c-40.6,20.3,4.1,42,4.1,42l47.4,10.8c0,0,48.8-6.8,54.2-14.9
	s14.9-35.2,12.2-39.3c-2-2.9-4.3-5.6-6.8-8.1c0,0-32.5-5.4-31.2-20.3S479,384.1,479,384.1z"/>
<ellipse transform="matrix(0.1602 -0.9871 0.9871 0.1602 60.6527 808.4022)" class="st6" cx="505.4" cy="368.6" rx="43.4" ry="43.4"/>
<path class="st2" d="M500.7,460c0,0-52.2-3.8-53.2-39.8c0,0-18.6-2.2-24,3.3s-23,9.5-23,23s29.8,54.2,29.8,54.2s16.3,54.2,9.5,63.7
	s-8.1,33.9-8.1,33.9s67.7-5.4,78.6,0s54.2,5.4,56.9,0s-2.7-73.2-2.7-73.2s12.2-16.3,9.5-35.2l32.5-37.9c0,0-12.2-36.6-31.2-36.6
	c0,0-25.7-6.8-26.4-3.4S561.6,453.2,500.7,460z"/>
<path class="st6" d="M378.1,578.9c0,0,12.3,18.6,43.7,22.6c31.4,4,36.9-6.6,34.2-9.3c-2.7-2.7-35.5-14.6-35.5-14.6L401.3,563
	L378.1,578.9z"/>
<path class="st6" d="M603.2,562.2l-37.2,19.6c0,0-46.1-6.5-29.5,9.7c16.6,16.3,49.8,12.8,49.8,12.8l32.6-14L603.2,562.2z"/>
<path class="st5" d="M424.8,598.2c0,0-32.5,79.9,6.8,92.1s147.7,9.5,172.1-6.8c24.4-16.3,31.2-37.9,27.1-44.7
	c-4.1-6.8-31.2-25.7-50.1-27.1S424.8,598.2,424.8,598.2z"/>
<path class="st7" d="M424.8,598.2c0,0-32.5,79.9,6.8,92.1s147.7,9.5,172.1-6.8c24.4-16.3,31.2-37.9,27.1-44.7
	c-4.1-6.8-31.2-25.7-50.1-27.1S424.8,598.2,424.8,598.2z"/>
<path class="st5" d="M578.3,603.2c0,0,114.8-41.5,113.4,8.6c-1.4,50.1-73.2,63.7-73.2,63.7l-21.7,2.7l-119.2,4.1
	c0,0,4.1-21.7-5.4-24.4c0,0,31.2-8.1,32.5-9.5c1.4-1.4,78.6-28.5,84-29.8c5.4-1.4,21.7-12.2,33.9-10.8c0,0,13.5-10.8,28.5-8.1
	l-42,2.7L578.3,603.2z"/>
<path class="st4" d="M578.3,603.2c0,0,114.8-41.5,113.4,8.6c-1.4,50.1-73.2,63.7-73.2,63.7l-21.7,2.7l-119.2,4.1
	c0,0,4.1-21.7-5.4-24.4c0,0,31.2-8.1,32.5-9.5c1.4-1.4,78.6-28.5,84-29.8c5.4-1.4,21.7-12.2,33.9-10.8c0,0,13.5-10.8,28.5-8.1
	l-42,2.7L578.3,603.2z"/>
<polygon class="st5" points="558,609.9 572.5,642.9 660.5,611.7 667.3,594.1 644.3,590.1 598,598.2 577.9,603.6 "/>
<polygon class="st4" points="558,609.9 572.5,642.9 660.5,611.7 667.3,594.1 644.3,590.1 598,598.2 577.9,603.6 "/>
<path class="st5" d="M370.6,649.7c0,0,25.7,32.5,55.5,40.6c29.8,8.1,46.1-2.7,46.1-2.7l-9.5-37.9l-4.1-24.4l-17.6-12.2l-35.2-16.3
	l-42-13.5c0,0-17.6-2.7-17.6,0c0,2.7,16.3,43.4,16.3,43.4L370.6,649.7z"/>
<path class="st0" d="M401.8,667.3c0,0,5.4,39.3,12.2,42s27.1-2.7,32.5-5.4c5.4-2.7,23.8-15.2,23.8-15.2S405.8,664.6,401.8,667.3z"/>
<polygon class="st6" points="525.1,671.3 550.8,675.4 548.1,706.6 512.2,697.9 "/>
<path class="st0" d="M541.2,680c0,0-12.1,14.4,0.1,22.5l8.1,6.8c0,0,27.1,5.4,29.8,8.1c2.7,2.7,13.5-4.1,13.5-4.1s1.4-40.6,0-43.4
	c-1.4-2.7-17.6-5.4-19-2.7c-1.4,2.7-17.6,6.8-27.1,4.1L541.2,680z"/>
<path class="st5" d="M432.9,607.7c0,0-94.8-55.5-109.7-35.2s-31.2,48.8,12.2,70.4c43.4,21.7,178.8,66.4,178.8,66.4
	s20.3-31.2,20.3-39.3c0,0-71.8-32.5-84-35.2c-12.2-2.7-61-33.9-67.7-36.6c-6.8-2.7-16.3-10.8-16.3-10.8L432.9,607.7z"/>
<path class="st2" d="M405.8,439.7l-5.4,4.1c0,0-12.2,31.2-13.5,48.8s-18.4,75.4-18.1,82.4c0.2,3.9,9.3,4.1,17.5,9.1
	c0,0,6-18.3,25-14.3l23-84L405.8,439.7z"/>
<path class="st2" d="M595.5,439.7l10.8,12.2c0,0,6.2,16.3,6.8,20.3c0.7,4.6,13.5,63.7,14.9,66.4c1.4,2.7,6,36,0,44.7
	c-6.7,9.7-21,11.2-21,11.2s10.1-26.1-15.6-27.5l2.7-10.8l-24.4-81.3L595.5,439.7z"/>
<path class="st1" d="M408.5,533v71.4c0,9.4,7.5,17,16.9,17.2l149.2,2.2c9.3,0.1,17-7.2,17.4-16.5l2.7-71.4c0.4-9.5-7-17.4-16.5-17.8
	c-0.1,0-0.3,0-0.4,0l-152-2.2c-9.5-0.1-17.3,7.4-17.4,16.9C408.5,532.8,408.5,532.9,408.5,533z"/>
<ellipse class="st5" cx="508" cy="342" rx="46.7" ry="25.1"/>
<circle class="st0" cx="500" cy="570.4" r="10.8"/>
<path class="st5" d="M795,568.2V692c0,2.1-1.1,2.4-3,3.5c-6.3,3.5-21.7,9.7-40.3-0.1c-1.9-1-3.1-1.3-3.1-3.5V569
	C748.6,569,772.2,578.5,795,568.2z"/>
<ellipse class="st8" cx="771.8" cy="568.1" rx="23.2" ry="4.9"/>
<g class="st9">
	<circle cx="792.9" cy="619.6" r="0.5"/>
	<circle cx="790.2" cy="620.4" r="0.5"/>
	<circle cx="787" cy="621.4" r="0.5"/>
	<circle cx="781.1" cy="622.7" r="0.5"/>
	<circle cx="774.9" cy="623.4" r="0.5"/>
	<circle cx="768.6" cy="623.7" r="0.5"/>
	<circle cx="759.4" cy="622.4" r="0.5"/>
	<circle cx="762.4" cy="623.2" r="0.5"/>
	<circle cx="753.7" cy="621.4" r="0.5"/>
	<circle cx="756.4" cy="621.9" r="0.5"/>
	<circle cx="750.7" cy="620.4" r="0.5"/>
	<circle cx="784" cy="622.1" r="0.5"/>
	<circle cx="777.9" cy="623.2" r="0.5"/>
	<circle cx="771.4" cy="623.7" r="0.5"/>
	<circle cx="765.4" cy="623.7" r="0.5"/>
</g>
<g class="st9">
	<circle cx="792.9" cy="622.2" r="0.5"/>
	<circle cx="790.2" cy="622.9" r="0.5"/>
	<circle cx="787" cy="624" r="0.5"/>
	<circle cx="781.1" cy="625.2" r="0.5"/>
	<circle cx="774.9" cy="626" r="0.5"/>
	<circle cx="768.6" cy="626.3" r="0.5"/>
	<circle cx="759.4" cy="625" r="0.5"/>
	<circle cx="762.4" cy="625.7" r="0.5"/>
	<circle cx="753.7" cy="624" r="0.5"/>
	<circle cx="756.4" cy="624.5" r="0.5"/>
	<circle cx="750.7" cy="622.9" r="0.5"/>
	<circle cx="784" cy="624.7" r="0.5"/>
	<circle cx="777.9" cy="625.7" r="0.5"/>
	<circle cx="771.4" cy="626.3" r="0.5"/>
	<circle cx="765.4" cy="626.3" r="0.5"/>
</g>
<g class="st9">
	<circle cx="792.9" cy="624.7" r="0.5"/>
	<circle cx="790.2" cy="625.5" r="0.5"/>
	<circle cx="787" cy="626.5" r="0.5"/>
	<circle cx="781.1" cy="627.8" r="0.5"/>
	<circle cx="774.9" cy="628.5" r="0.5"/>
	<circle cx="768.6" cy="628.8" r="0.5"/>
	<circle cx="759.4" cy="627.6" r="0.5"/>
	<circle cx="762.4" cy="628.3" r="0.5"/>
	<circle cx="753.7" cy="626.5" r="0.5"/>
	<circle cx="756.4" cy="627" r="0.5"/>
	<circle cx="750.7" cy="625.5" r="0.5"/>
	<circle cx="784" cy="627.3" r="0.5"/>
	<circle cx="777.9" cy="628.3" r="0.5"/>
	<circle cx="771.4" cy="628.8" r="0.5"/>
	<circle cx="765.4" cy="628.8" r="0.5"/>
</g>
<g class="st9">
	<circle cx="792.9" cy="627.3" r="0.5"/>
	<circle cx="790.2" cy="628" r="0.5"/>
	<circle cx="787" cy="629.1" r="0.5"/>
	<circle cx="781.1" cy="630.3" r="0.5"/>
	<circle cx="774.9" cy="631.1" r="0.5"/>
	<circle cx="768.6" cy="631.4" r="0.5"/>
	<circle cx="759.4" cy="630.1" r="0.5"/>
	<circle cx="762.4" cy="630.9" r="0.5"/>
	<circle cx="753.7" cy="629.1" r="0.5"/>
	<circle cx="756.4" cy="629.6" r="0.5"/>
	<circle cx="750.7" cy="628" r="0.5"/>
	<circle cx="784" cy="629.8" r="0.5"/>
	<circle cx="777.9" cy="630.9" r="0.5"/>
	<circle cx="771.4" cy="631.4" r="0.5"/>
	<circle cx="765.4" cy="631.4" r="0.5"/>
</g>
<g class="st9">
	<circle cx="792.9" cy="629.9" r="0.5"/>
	<circle cx="790.2" cy="630.6" r="0.5"/>
	<circle cx="787" cy="631.6" r="0.5"/>
	<circle cx="781.1" cy="632.9" r="0.5"/>
	<circle cx="774.9" cy="633.6" r="0.5"/>
	<circle cx="768.6" cy="633.9" r="0.5"/>
	<circle cx="759.4" cy="632.7" r="0.5"/>
	<circle cx="762.4" cy="633.4" r="0.5"/>
	<circle cx="753.7" cy="631.6" r="0.5"/>
	<circle cx="756.4" cy="632.2" r="0.5"/>
	<circle cx="750.7" cy="630.6" r="0.5"/>
	<circle cx="784" cy="632.4" r="0.5"/>
	<circle cx="777.9" cy="633.4" r="0.5"/>
	<circle cx="771.4" cy="633.9" r="0.5"/>
	<circle cx="765.4" cy="633.9" r="0.5"/>
</g>
<g class="st9">
	<circle cx="792.9" cy="632.4" r="0.5"/>
	<circle cx="790.2" cy="633.2" r="0.5"/>
	<circle cx="787" cy="634.2" r="0.5"/>
	<circle cx="781.1" cy="635.5" r="0.5"/>
	<circle cx="774.9" cy="636.2" r="0.5"/>
	<circle cx="768.6" cy="636.5" r="0.5"/>
	<circle cx="759.4" cy="635.2" r="0.5"/>
	<circle cx="762.4" cy="636" r="0.5"/>
	<circle cx="753.7" cy="634.2" r="0.5"/>
	<circle cx="756.4" cy="634.7" r="0.5"/>
	<circle cx="750.7" cy="633.2" r="0.5"/>
	<circle cx="784" cy="634.9" r="0.5"/>
	<circle cx="777.9" cy="636" r="0.5"/>
	<circle cx="771.4" cy="636.5" r="0.5"/>
	<circle cx="765.4" cy="636.5" r="0.5"/>
</g>
<g class="st9">
	<circle cx="792.9" cy="635" r="0.5"/>
	<circle cx="790.2" cy="635.7" r="0.5"/>
	<circle cx="787" cy="636.8" r="0.5"/>
	<circle cx="781.1" cy="638" r="0.5"/>
	<circle cx="774.9" cy="638.8" r="0.5"/>
	<circle cx="768.6" cy="639.1" r="0.5"/>
	<circle cx="759.4" cy="637.8" r="0.5"/>
	<circle cx="762.4" cy="638.5" r="0.5"/>
	<circle cx="753.7" cy="636.8" r="0.5"/>
	<circle cx="756.4" cy="637.3" r="0.5"/>
	<circle cx="750.7" cy="635.7" r="0.5"/>
	<circle cx="784" cy="637.5" r="0.5"/>
	<circle cx="777.9" cy="638.5" r="0.5"/>
	<circle cx="771.4" cy="639.1" r="0.5"/>
	<circle cx="765.4" cy="639.1" r="0.5"/>
</g>
<g class="st9">
	<circle cx="792.9" cy="637.5" r="0.5"/>
	<circle cx="790.2" cy="638.3" r="0.5"/>
	<circle cx="787" cy="639.3" r="0.5"/>
	<circle cx="781.1" cy="640.6" r="0.5"/>
	<circle cx="774.9" cy="641.3" r="0.5"/>
	<circle cx="768.6" cy="641.6" r="0.5"/>
	<circle cx="759.4" cy="640.4" r="0.5"/>
	<circle cx="762.4" cy="641.1" r="0.5"/>
	<circle cx="753.7" cy="639.3" r="0.5"/>
	<circle cx="756.4" cy="639.8" r="0.5"/>
	<circle cx="750.7" cy="638.3" r="0.5"/>
	<circle cx="784" cy="640.1" r="0.5"/>
	<circle cx="777.9" cy="641.1" r="0.5"/>
	<circle cx="771.4" cy="641.6" r="0.5"/>
	<circle cx="765.4" cy="641.6" r="0.5"/>
</g>
<g class="st9">
	<circle cx="792.9" cy="640.1" r="0.5"/>
	<circle cx="790.2" cy="640.8" r="0.5"/>
	<circle cx="787" cy="641.9" r="0.5"/>
	<circle cx="781.1" cy="643.1" r="0.5"/>
	<circle cx="774.9" cy="643.9" r="0.5"/>
	<circle cx="768.6" cy="644.2" r="0.5"/>
	<circle cx="759.4" cy="642.9" r="0.5"/>
	<circle cx="762.4" cy="643.7" r="0.5"/>
	<circle cx="753.7" cy="641.9" r="0.5"/>
	<circle cx="756.4" cy="642.4" r="0.5"/>
	<circle cx="750.7" cy="640.8" r="0.5"/>
	<circle cx="784" cy="642.6" r="0.5"/>
	<circle cx="777.9" cy="643.7" r="0.5"/>
	<circle cx="771.4" cy="644.2" r="0.5"/>
	<circle cx="765.4" cy="644.2" r="0.5"/>
</g>
<g class="st9">
	<circle cx="792.9" cy="642.7" r="0.5"/>
	<circle cx="790.2" cy="643.4" r="0.5"/>
	<circle cx="787" cy="644.4" r="0.5"/>
	<circle cx="781.1" cy="645.7" r="0.5"/>
	<circle cx="774.9" cy="646.5" r="0.5"/>
	<circle cx="768.6" cy="646.7" r="0.5"/>
	<circle cx="759.4" cy="645.5" r="0.5"/>
	<circle cx="762.4" cy="646.2" r="0.5"/>
	<circle cx="753.7" cy="644.4" r="0.5"/>
	<circle cx="756.4" cy="645" r="0.5"/>
	<circle cx="750.7" cy="643.4" r="0.5"/>
	<circle cx="784" cy="645.2" r="0.5"/>
	<circle cx="777.9" cy="646.2" r="0.5"/>
	<circle cx="771.4" cy="646.7" r="0.5"/>
	<circle cx="765.4" cy="646.7" r="0.5"/>
</g>
<g class="st9">
	<circle cx="792.9" cy="645.2" r="0.5"/>
	<circle cx="790.2" cy="646" r="0.5"/>
	<circle cx="787" cy="647" r="0.5"/>
	<circle cx="781.1" cy="648.3" r="0.5"/>
	<circle cx="774.9" cy="649" r="0.5"/>
	<circle cx="768.6" cy="649.3" r="0.5"/>
	<circle cx="759.4" cy="648" r="0.5"/>
	<circle cx="762.4" cy="648.8" r="0.5"/>
	<circle cx="753.7" cy="647" r="0.5"/>
	<circle cx="756.4" cy="647.5" r="0.5"/>
	<circle cx="750.7" cy="646" r="0.5"/>
	<circle cx="784" cy="647.7" r="0.5"/>
	<circle cx="777.9" cy="648.8" r="0.5"/>
	<circle cx="771.4" cy="649.3" r="0.5"/>
	<circle cx="765.4" cy="649.3" r="0.5"/>
</g>
<g class="st9">
	<circle cx="792.9" cy="647.8" r="0.5"/>
	<circle cx="790.2" cy="648.5" r="0.5"/>
	<circle cx="787" cy="649.6" r="0.5"/>
	<circle cx="781.1" cy="650.8" r="0.5"/>
	<circle cx="774.9" cy="651.6" r="0.5"/>
	<circle cx="768.6" cy="651.9" r="0.5"/>
	<circle cx="759.4" cy="650.6" r="0.5"/>
	<circle cx="762.4" cy="651.3" r="0.5"/>
	<circle cx="753.7" cy="649.6" r="0.5"/>
	<circle cx="756.4" cy="650.1" r="0.5"/>
	<circle cx="750.7" cy="648.5" r="0.5"/>
	<circle cx="784" cy="650.3" r="0.5"/>
	<circle cx="777.9" cy="651.3" r="0.5"/>
	<circle cx="771.4" cy="651.9" r="0.5"/>
	<circle cx="765.4" cy="651.9" r="0.5"/>
</g>
<g class="st9">
	<circle cx="792.9" cy="650.3" r="0.5"/>
	<circle cx="790.2" cy="651.1" r="0.5"/>
	<circle cx="787" cy="652.1" r="0.5"/>
	<circle cx="781.1" cy="653.4" r="0.5"/>
	<circle cx="774.9" cy="654.1" r="0.5"/>
	<circle cx="768.6" cy="654.4" r="0.5"/>
	<circle cx="759.4" cy="653.2" r="0.5"/>
	<circle cx="762.4" cy="653.9" r="0.5"/>
	<circle cx="753.7" cy="652.1" r="0.5"/>
	<circle cx="756.4" cy="652.6" r="0.5"/>
	<circle cx="750.7" cy="651.1" r="0.5"/>
	<circle cx="784" cy="652.9" r="0.5"/>
	<circle cx="777.9" cy="653.9" r="0.5"/>
	<circle cx="771.4" cy="654.4" r="0.5"/>
	<circle cx="765.4" cy="654.4" r="0.5"/>
</g>
<g class="st9">
	<circle cx="792.9" cy="652.9" r="0.5"/>
	<circle cx="790.2" cy="653.6" r="0.5"/>
	<circle cx="787" cy="654.7" r="0.5"/>
	<circle cx="781.1" cy="655.9" r="0.5"/>
	<circle cx="774.9" cy="656.7" r="0.5"/>
	<circle cx="768.6" cy="657" r="0.5"/>
	<circle cx="759.4" cy="655.7" r="0.5"/>
	<circle cx="762.4" cy="656.5" r="0.5"/>
	<circle cx="753.7" cy="654.7" r="0.5"/>
	<circle cx="756.4" cy="655.2" r="0.5"/>
	<circle cx="750.7" cy="653.6" r="0.5"/>
	<circle cx="784" cy="655.4" r="0.5"/>
	<circle cx="777.9" cy="656.5" r="0.5"/>
	<circle cx="771.4" cy="657" r="0.5"/>
	<circle cx="765.4" cy="657" r="0.5"/>
</g>
<g class="st9">
	<circle cx="792.9" cy="655.5" r="0.5"/>
	<circle cx="790.2" cy="656.2" r="0.5"/>
	<circle cx="787" cy="657.2" r="0.5"/>
	<circle cx="781.1" cy="658.5" r="0.5"/>
	<circle cx="774.9" cy="659.3" r="0.5"/>
	<circle cx="768.6" cy="659.6" r="0.5"/>
	<circle cx="759.4" cy="658.3" r="0.5"/>
	<circle cx="762.4" cy="659" r="0.5"/>
	<circle cx="753.7" cy="657.2" r="0.5"/>
	<circle cx="756.4" cy="657.8" r="0.5"/>
	<circle cx="750.7" cy="656.2" r="0.5"/>
	<circle cx="784" cy="658" r="0.5"/>
	<circle cx="777.9" cy="659" r="0.5"/>
	<circle cx="771.4" cy="659.6" r="0.5"/>
	<circle cx="765.4" cy="659.6" r="0.5"/>
</g>
<g class="st9">
	<circle cx="792.9" cy="658" r="0.5"/>
	<circle cx="790.2" cy="658.8" r="0.5"/>
	<circle cx="787" cy="659.8" r="0.5"/>
	<circle cx="781.1" cy="661.1" r="0.5"/>
	<circle cx="774.9" cy="661.8" r="0.5"/>
	<circle cx="768.6" cy="662.1" r="0.5"/>
	<circle cx="759.4" cy="660.9" r="0.5"/>
	<circle cx="762.4" cy="661.6" r="0.5"/>
	<circle cx="753.7" cy="659.8" r="0.5"/>
	<circle cx="756.4" cy="660.3" r="0.5"/>
	<circle cx="750.7" cy="658.8" r="0.5"/>
	<circle cx="784" cy="660.6" r="0.5"/>
	<circle cx="777.9" cy="661.6" r="0.5"/>
	<circle cx="771.4" cy="662.1" r="0.5"/>
	<circle cx="765.4" cy="662.1" r="0.5"/>
</g>
<g class="st9">
	<circle cx="792.9" cy="660.6" r="0.5"/>
	<circle cx="790.2" cy="661.3" r="0.5"/>
	<circle cx="787" cy="662.4" r="0.5"/>
	<circle cx="781.1" cy="663.6" r="0.5"/>
	<circle cx="774.9" cy="664.4" r="0.5"/>
	<circle cx="768.6" cy="664.7" r="0.5"/>
	<circle cx="759.4" cy="663.4" r="0.5"/>
	<circle cx="762.4" cy="664.2" r="0.5"/>
	<circle cx="753.7" cy="662.4" r="0.5"/>
	<circle cx="756.4" cy="662.9" r="0.5"/>
	<circle cx="750.7" cy="661.3" r="0.5"/>
	<circle cx="784" cy="663.1" r="0.5"/>
	<circle cx="777.9" cy="664.2" r="0.5"/>
	<circle cx="771.4" cy="664.7" r="0.5"/>
	<circle cx="765.4" cy="664.7" r="0.5"/>
</g>
<g class="st9">
	<circle cx="792.9" cy="663.2" r="0.5"/>
	<circle cx="790.2" cy="663.9" r="0.5"/>
	<circle cx="787" cy="664.9" r="0.5"/>
	<circle cx="781.1" cy="666.2" r="0.5"/>
	<circle cx="774.9" cy="666.9" r="0.5"/>
	<circle cx="768.6" cy="667.2" r="0.5"/>
	<circle cx="759.4" cy="666" r="0.5"/>
	<circle cx="762.4" cy="666.7" r="0.5"/>
	<circle cx="753.7" cy="664.9" r="0.5"/>
	<circle cx="756.4" cy="665.5" r="0.5"/>
	<circle cx="750.7" cy="663.9" r="0.5"/>
	<circle cx="784" cy="665.7" r="0.5"/>
	<circle cx="777.9" cy="666.7" r="0.5"/>
	<circle cx="771.4" cy="667.2" r="0.5"/>
	<circle cx="765.4" cy="667.2" r="0.5"/>
</g>
<g class="st9">
	<circle cx="792.9" cy="665.7" r="0.5"/>
	<circle cx="790.2" cy="666.5" r="0.5"/>
	<circle cx="787" cy="667.5" r="0.5"/>
	<circle cx="781.1" cy="668.8" r="0.5"/>
	<circle cx="774.9" cy="669.5" r="0.5"/>
	<circle cx="768.6" cy="669.8" r="0.5"/>
	<circle cx="759.4" cy="668.5" r="0.5"/>
	<circle cx="762.4" cy="669.3" r="0.5"/>
	<circle cx="753.7" cy="667.5" r="0.5"/>
	<circle cx="756.4" cy="668" r="0.5"/>
	<circle cx="750.7" cy="666.5" r="0.5"/>
	<circle cx="784" cy="668.2" r="0.5"/>
	<circle cx="777.9" cy="669.3" r="0.5"/>
	<circle cx="771.4" cy="669.8" r="0.5"/>
	<circle cx="765.4" cy="669.8" r="0.5"/>
</g>
<g class="st9">
	<circle cx="792.9" cy="668.3" r="0.5"/>
	<circle cx="790.2" cy="669" r="0.5"/>
	<circle cx="787" cy="670.1" r="0.5"/>
	<circle cx="781.1" cy="671.3" r="0.5"/>
	<circle cx="774.9" cy="672.1" r="0.5"/>
	<circle cx="768.6" cy="672.4" r="0.5"/>
	<circle cx="759.4" cy="671.1" r="0.5"/>
	<circle cx="762.4" cy="671.8" r="0.5"/>
	<circle cx="753.7" cy="670.1" r="0.5"/>
	<circle cx="756.4" cy="670.6" r="0.5"/>
	<circle cx="750.7" cy="669" r="0.5"/>
	<circle cx="784" cy="670.8" r="0.5"/>
	<circle cx="777.9" cy="671.8" r="0.5"/>
	<circle cx="771.4" cy="672.4" r="0.5"/>
	<circle cx="765.4" cy="672.4" r="0.5"/>
</g>
<g class="st9">
	<circle cx="792.9" cy="670.8" r="0.5"/>
	<circle cx="790.2" cy="671.6" r="0.5"/>
	<circle cx="787" cy="672.6" r="0.5"/>
	<circle cx="781.1" cy="673.9" r="0.5"/>
	<circle cx="774.9" cy="674.6" r="0.5"/>
	<circle cx="768.6" cy="674.9" r="0.5"/>
	<circle cx="759.4" cy="673.7" r="0.5"/>
	<circle cx="762.4" cy="674.4" r="0.5"/>
	<circle cx="753.7" cy="672.6" r="0.5"/>
	<circle cx="756.4" cy="673.1" r="0.5"/>
	<circle cx="750.7" cy="671.6" r="0.5"/>
	<circle cx="784" cy="673.4" r="0.5"/>
	<circle cx="777.9" cy="674.4" r="0.5"/>
	<circle cx="771.4" cy="674.9" r="0.5"/>
	<circle cx="765.4" cy="674.9" r="0.5"/>
</g>
<g class="st9">
	<circle cx="792.9" cy="673.4" r="0.5"/>
	<circle cx="790.2" cy="674.1" r="0.5"/>
	<circle cx="787" cy="675.2" r="0.5"/>
	<circle cx="781.1" cy="676.4" r="0.5"/>
	<circle cx="774.9" cy="677.2" r="0.5"/>
	<circle cx="768.6" cy="677.5" r="0.5"/>
	<circle cx="759.4" cy="676.2" r="0.5"/>
	<circle cx="762.4" cy="677" r="0.5"/>
	<circle cx="753.7" cy="675.2" r="0.5"/>
	<circle cx="756.4" cy="675.7" r="0.5"/>
	<circle cx="750.7" cy="674.1" r="0.5"/>
	<circle cx="784" cy="675.9" r="0.5"/>
	<circle cx="777.9" cy="677" r="0.5"/>
	<circle cx="771.4" cy="677.5" r="0.5"/>
	<circle cx="765.4" cy="677.5" r="0.5"/>
</g>
<g class="st9">
	<circle cx="792.9" cy="676" r="0.5"/>
	<circle cx="790.2" cy="676.7" r="0.5"/>
	<circle cx="787" cy="677.7" r="0.5"/>
	<circle cx="781.1" cy="679" r="0.5"/>
	<circle cx="774.9" cy="679.7" r="0.5"/>
	<circle cx="768.6" cy="680" r="0.5"/>
	<circle cx="759.4" cy="678.8" r="0.5"/>
	<circle cx="762.4" cy="679.5" r="0.5"/>
	<circle cx="753.7" cy="677.7" r="0.5"/>
	<circle cx="756.4" cy="678.3" r="0.5"/>
	<circle cx="750.7" cy="676.7" r="0.5"/>
	<circle cx="784" cy="678.5" r="0.5"/>
	<circle cx="777.9" cy="679.5" r="0.5"/>
	<circle cx="771.4" cy="680" r="0.5"/>
	<circle cx="765.4" cy="680" r="0.5"/>
</g>
<g class="st9">
	<circle cx="792.9" cy="678.5" r="0.5"/>
	<circle cx="790.2" cy="679.3" r="0.5"/>
	<circle cx="787" cy="680.3" r="0.5"/>
	<circle cx="781.1" cy="681.6" r="0.5"/>
	<circle cx="774.9" cy="682.3" r="0.5"/>
	<circle cx="768.6" cy="682.6" r="0.5"/>
	<circle cx="759.4" cy="681.3" r="0.5"/>
	<circle cx="762.4" cy="682.1" r="0.5"/>
	<circle cx="753.7" cy="680.3" r="0.5"/>
	<circle cx="756.4" cy="680.8" r="0.5"/>
	<circle cx="750.7" cy="679.3" r="0.5"/>
	<circle cx="784" cy="681" r="0.5"/>
	<circle cx="777.9" cy="682.1" r="0.5"/>
	<circle cx="771.4" cy="682.6" r="0.5"/>
	<circle cx="765.4" cy="682.6" r="0.5"/>
</g>
</svg>
