<svg id="Layer_1" data-name="Layer 1" xmlns="http://www.w3.org/2000/svg" viewBox="0 0 16 16"><defs><style>.cls-1{fill:#f6f4f4;fill-rule:evenodd;}</style></defs><title>menu</title><path class="cls-1" d="M2.31,2H13.69A1.4,1.4,0,0,1,15,3.48h0A1.4,1.4,0,0,1,13.69,5H2.31A1.4,1.4,0,0,1,1,3.48H1A1.4,1.4,0,0,1,2.31,2Z"/><path class="cls-1" d="M2.31,6.52H13.69A1.4,1.4,0,0,1,15,8h0a1.4,1.4,0,0,1-1.31,1.48H2.31A1.4,1.4,0,0,1,1,8H1A1.4,1.4,0,0,1,2.31,6.52Z"/><path class="cls-1" d="M2.31,11H13.69A1.4,1.4,0,0,1,15,12.52h0A1.4,1.4,0,0,1,13.69,14H2.31A1.4,1.4,0,0,1,1,12.52H1A1.4,1.4,0,0,1,2.31,11Z"/></svg>