<?xml version="1.0" encoding="utf-8"?>
<!-- Generator: Adobe Illustrator 24.0.1, SVG Export Plug-In . SVG Version: 6.00 Build 0)  -->
<svg version="1.1" id="ef5a821c-0415-4aa8-b37e-a4b84ad98d37"
	 xmlns="http://www.w3.org/2000/svg" xmlns:xlink="http://www.w3.org/1999/xlink" x="0px" y="0px" viewBox="0 0 831.1 647"
	 style="enable-background:new 0 0 831.1 647;" xml:space="preserve">
<style type="text/css">
	.st0{fill:#F3F0F0;}
	.st1{fill:#FDFBFA;}
	.st2{fill:#E6E6E6;}
	.st3{opacity:0.3;fill:#6C63FF;enable-background:new    ;}
	.st4{fill:#6C63FF;}
	.st5{fill:#FFB8B8;}
	.st6{fill:#F6F4F4;}
	.st7{fill:#2F2E41;}
</style>
<path class="st0" d="M31.9,0C14.3,0,0,14.3,0,31.9v583.1C0,632.7,14.3,647,31.9,647h319.4c17.6,0,31.9-14.3,31.9-31.9V31.9
	C383.3,14.3,369,0,351.3,0H31.9z"/>
<path class="st1" d="M42.4,18.2C29,18.2,18.2,29,18.2,42.4v562.2c0,13.4,10.9,24.2,24.2,24.2h298.5c13.4,0,24.2-10.9,24.2-24.2V42.4
	c0-13.4-10.9-24.2-24.2-24.2L42.4,18.2z"/>
<path class="st0" d="M335.8,136.6H47.5c-2.9,0-5.3-2.4-5.3-5.3V59.8c0-2.9,2.4-5.3,5.3-5.3h288.3c2.9,0,5.3,2.4,5.3,5.3v71.5
	C341.1,134.3,338.7,136.6,335.8,136.6z M47.5,56.6c-1.8,0-3.2,1.4-3.2,3.2v71.5c0,1.8,1.4,3.2,3.2,3.2h288.3c1.8,0,3.2-1.4,3.2-3.2
	V59.8c0-1.8-1.4-3.2-3.2-3.2L47.5,56.6z"/>
<path class="st0" d="M335.8,419.6H47.5c-2.9,0-5.3-2.4-5.3-5.3V281.9c0-2.9,2.4-5.3,5.3-5.3h288.3c2.9,0,5.3,2.4,5.3,5.3v132.4
	C341.1,417.2,338.7,419.6,335.8,419.6z M47.5,278.7c-1.8,0-3.2,1.4-3.2,3.2v132.4c0,1.8,1.4,3.2,3.2,3.2h288.3
	c1.8,0,3.2-1.4,3.2-3.2V281.9c0-1.8-1.4-3.2-3.2-3.2L47.5,278.7z"/>
<path class="st0" d="M333.6,247.7H205.5c-2.9,0-5.3-2.4-5.3-5.3v-71.5c0-2.9,2.4-5.3,5.3-5.3h128.1c2.9,0,5.3,2.4,5.3,5.3v71.5
	C339,245.3,336.6,247.7,333.6,247.7z M205.5,167.6c-1.8,0-3.2,1.4-3.2,3.2v71.5c0,1.8,1.4,3.2,3.2,3.2h128.1c1.8,0,3.2-1.4,3.2-3.2
	v-71.5c0-1.8-1.4-3.2-3.2-3.2L205.5,167.6z"/>
<path class="st0" d="M175.6,592.5H47.5c-2.9,0-5.3-2.4-5.3-5.3V453.8c0-2.9,2.4-5.3,5.3-5.3h128.1c2.9,0,5.3,2.4,5.3,5.3v133.4
	C181,590.1,178.6,592.5,175.6,592.5z M47.5,450.6c-1.8,0-3.2,1.4-3.2,3.2v133.4c0,1.8,1.4,3.2,3.2,3.2h128.1c1.8,0,3.2-1.4,3.2-3.2
	V453.8c0-1.8-1.4-3.2-3.2-3.2L47.5,450.6z"/>
<path class="st0" d="M333.6,592.5H205.5c-2.9,0-5.3-2.4-5.3-5.3V453.8c0-2.9,2.4-5.3,5.3-5.3h128.1c2.9,0,5.3,2.4,5.3,5.3v133.4
	C339,590.1,336.6,592.5,333.6,592.5z M205.5,450.6c-1.8,0-3.2,1.4-3.2,3.2v133.4c0,1.8,1.4,3.2,3.2,3.2h128.1c1.8,0,3.2-1.4,3.2-3.2
	V453.8c0-1.8-1.4-3.2-3.2-3.2L205.5,450.6z"/>
<circle class="st0" cx="90.2" cy="323.4" r="21.7"/>
<path class="st0" d="M140.4,308.9c-2,0-3.6,1.6-3.6,3.6c0,2,1.6,3.6,3.6,3.6h170.9c2,0,3.6-1.6,3.6-3.6c0-2-1.6-3.6-3.6-3.6H140.4z"
	/>
<path class="st0" d="M140.4,330.7c-2,0-3.6,1.6-3.6,3.6s1.6,3.6,3.6,3.6h73.5c2,0,3.6-1.6,3.6-3.6c0-2-1.6-3.6-3.6-3.6H140.4z"/>
<path class="st0" d="M73.5,365.4c-2.8,0-5,1.6-5,3.6s2.2,3.6,5,3.6h235.7c2.8,0,5-1.6,5-3.6s-2.2-3.6-5-3.6H73.5z"/>
<path class="st0" d="M73.5,387.2c-2.8,0-5,1.6-5,3.6s2.2,3.6,5,3.6h235.7c2.8,0,5-1.6,5-3.6s-2.2-3.6-5-3.6H73.5z"/>
<circle class="st0" cx="92.3" cy="92.8" r="21.7"/>
<path class="st0" d="M142.5,78.3c-2,0-3.6,1.6-3.6,3.6c0,2,1.6,3.6,3.6,3.6h170.9c2,0,3.6-1.6,3.6-3.6c0-2-1.6-3.6-3.6-3.6l0,0
	c0,0,0,0,0,0H142.5z"/>
<path class="st0" d="M142.5,100.1c-2,0-3.6,1.6-3.6,3.6c0,2,1.6,3.6,3.6,3.6H216c2,0,3.6-1.6,3.6-3.6s-1.6-3.6-3.6-3.6c0,0,0,0,0,0
	H142.5z"/>
<path class="st0" d="M175.5,247.7H55.3l28.3-49c1.6-2.8,5.1-3.7,7.9-2.1c0.9,0.5,1.6,1.2,2.1,2.1l12.1,20.9l20.5-35.6
	c2-3.5,6.4-4.6,9.9-2.6c1.1,0.6,2,1.5,2.6,2.6L175.5,247.7z M59,245.6h112.8l-34.9-60.4c-1.4-2.4-4.5-3.3-7-1.9
	c-0.8,0.4-1.4,1.1-1.9,1.9l-22.4,38.8l-13.9-24.1c-1-1.7-3.2-2.3-5-1.3c-0.6,0.3-1,0.8-1.3,1.3L59,245.6z"/>
<path class="st0" d="M329.3,247.7H209.1l28.3-49c1.6-2.8,5.1-3.7,7.9-2.1c0.9,0.5,1.6,1.2,2.1,2.1l12.1,20.9L280,184
	c2-3.5,6.4-4.6,9.9-2.6c1.1,0.6,2,1.5,2.6,2.6L329.3,247.7z M212.8,245.6h112.8l-34.9-60.4c-1.4-2.4-4.5-3.3-7-1.9
	c-0.8,0.4-1.4,1.1-1.9,1.9l-22.4,38.8l-13.9-24.1c-1-1.7-3.2-2.3-5-1.3c-0.6,0.3-1,0.8-1.3,1.3L212.8,245.6z"/>
<path class="st0" d="M175.6,247.7H47.5c-2.9,0-5.3-2.4-5.3-5.3v-71.5c0-2.9,2.4-5.3,5.3-5.3h128.1c2.9,0,5.3,2.4,5.3,5.3v71.5
	C181,245.3,178.6,247.7,175.6,247.7z M47.5,167.6c-1.8,0-3.2,1.4-3.2,3.2v71.5c0,1.8,1.4,3.2,3.2,3.2h128.1c1.8,0,3.2-1.4,3.2-3.2
	v-71.5c0-1.8-1.4-3.2-3.2-3.2L47.5,167.6z"/>
<path class="st2" d="M74.8,475.9c-2,0-3.6,1.6-3.6,3.6c0,2,1.6,3.6,3.6,3.6c0,0,0,0,0,0h73.5c2,0,3.6-1.6,3.6-3.6
	c0-2-1.6-3.6-3.6-3.6c0,0,0,0,0,0H74.8z"/>
<path class="st2" d="M74.8,497.3c-2,0-3.6,1.6-3.6,3.6c0,2,1.6,3.6,3.6,3.6c0,0,0,0,0,0h73.5c2,0,3.6-1.6,3.6-3.6
	c0-2-1.6-3.6-3.6-3.6c0,0,0,0,0,0H74.8z"/>
<path class="st0" d="M111.6,565c-12.6,0-22.8-10.2-22.8-22.8c0-12.6,10.2-22.8,22.8-22.8s22.8,10.2,22.8,22.8c0,0,0,0,0,0l0,0
	C134.4,554.8,124.2,565,111.6,565z M111.6,521.5c-11.4,0-20.7,9.3-20.7,20.7c0,11.4,9.3,20.7,20.7,20.7c11.4,0,20.7-9.3,20.7-20.7v0
	l0,0C132.2,530.8,123,521.5,111.6,521.5L111.6,521.5z"/>
<path class="st0" d="M306.3,565c2,0,3.6-1.6,3.6-3.6c0-2-1.6-3.6-3.6-3.6c0,0,0,0,0,0h-73.5c-2,0-3.6,1.6-3.6,3.6
	c0,2,1.6,3.6,3.6,3.6H306.3z"/>
<path class="st0" d="M306.3,543.7c2,0,3.6-1.6,3.6-3.6c0-2-1.6-3.6-3.6-3.6c0,0,0,0,0,0h-73.5c-2,0-3.6,1.6-3.6,3.6
	c0,2,1.6,3.6,3.6,3.6H306.3z"/>
<path class="st0" d="M269.6,475.9c12.6,0,22.8,10.2,22.8,22.8s-10.2,22.8-22.8,22.8s-22.8-10.2-22.8-22.8v0
	C246.8,486.2,257,476,269.6,475.9z M269.6,519.4c11.4,0,20.7-9.3,20.7-20.7s-9.3-20.7-20.7-20.7c-11.4,0-20.7,9.3-20.7,20.7l0,0v0
	C248.9,510.2,258.2,519.4,269.6,519.4L269.6,519.4z"/>
<circle class="st3" cx="234.6" cy="132.2" r="54"/>
<ellipse transform="matrix(0.1602 -0.9871 0.9871 0.1602 66.5659 342.6248)" class="st3" cx="234.6" cy="132.2" rx="36" ry="36"/>
<ellipse transform="matrix(0.1602 -0.9871 0.9871 0.1602 66.5659 342.6248)" class="st4" cx="234.6" cy="132.2" rx="25" ry="25"/>
<circle class="st3" cx="111.6" cy="497.2" r="39.9"/>
<circle class="st3" cx="111.6" cy="497.2" r="26.6"/>
<circle class="st4" cx="111.6" cy="497.2" r="18.5"/>
<circle class="st3" cx="277.6" cy="341.2" r="45.9"/>
<circle class="st3" cx="277.6" cy="341.2" r="30.6"/>
<circle class="st4" cx="277.6" cy="341.2" r="21.3"/>
<path class="st5" d="M491.1,412.5l-9.4,16c-3.4,5.7-10.7,7.5-16.3,4.2c-0.9-0.5-1.8-1.2-2.5-2l0,0c-4.6-4.7-4.4-12.3,0.3-16.8
	c0.4-0.4,0.8-0.8,1.3-1.1l15.4-11.1c14.8-20,23.2-53.9,30.5-90.6l30,3.5C532.5,344.5,514,377.8,491.1,412.5z"/>
<path class="st6" d="M494.8,321.7l48.8,13.8v-85.2l-6.5,2.1c-11.5,3.7-20.5,12.7-24.2,24.2L494.8,321.7z"/>
<path class="st7" d="M594.6,627l-18.2-0.7c-6-61.6-13.6-117.5-29.1-146.5c-15,16.1-18.5,67-21,136.3h-17.7
	c-18.6-79.8-23.2-136.4,0-190.2h94.7L594.6,627z"/>
<path class="st7" d="M527.4,628.4l-31.6,16.2c-3.4,1.7-7.6,0.4-9.4-3c-0.1-0.1-0.1-0.3-0.2-0.4l0,0c-1.4-3.2-0.2-6.9,2.8-8.7
	l4.3-2.6l12-17.9l20.5-1.6l3.7,3.6c3.6,3.5,3.7,9.2,0.3,12.8C529.1,627.3,528.3,627.9,527.4,628.4z"/>
<path class="st7" d="M591.7,643.5l-35.5,1c-3.8,0.1-7-2.9-7.2-6.8c0-0.1,0-0.3,0-0.4l0,0c0.1-3.5,2.8-6.3,6.3-6.7l5-0.5l18.6-11
	l19.2,7.3l1.8,4.8c1.8,4.7-0.6,9.9-5.2,11.7C593.7,643.3,592.7,643.5,591.7,643.5z"/>
<circle class="st5" cx="555.6" cy="210.7" r="23.8"/>
<path class="st5" d="M594.6,248.8l-49.5,18.9c2.9-15.6,2.9-30.2-1.8-43.4l31.7-5.5C572.3,232.6,580.5,241.9,594.6,248.8z"/>
<path class="st6" d="M615,439.7c-43.6,8.3-78.7,3-107.1-13.1c13.1-45.2,15-95.3,11.6-147.6c-0.7-10.7,5.5-20.7,15.4-24.9l12.4-5.3
	c6.7,15.2,22.2,6.5,38.6-5.1l20.3,9c6.6,2.9,10.7,9.6,10.3,16.9C612.5,339.1,607,413.6,615,439.7z"/>
<path class="st5" d="M629.6,429.5l-1.3,18.6c-0.5,7.1-6.6,12.4-13.6,11.9l0,0c-7.1-0.5-12.5-6.6-12-13.6c0.1-2.1,0.8-4.2,1.9-6
	l10.4-16.7c6.2-24.1,1.3-58.7-5.8-95.5l29.1-8C642.5,351,637.8,388.8,629.6,429.5z"/>
<path class="st7" d="M582.8,195.2c0,0,4.5-9.8-7.1-14.3c0,0-9.8-16-29.4-5.3c0,0-13.4,5.3-13.4,19.6s-4.5,16.9-4.5,16.9
	s6.6-6.8,8.4-12.1s15.6-6.6,21-1.2s18.7,4.5,18.7,4.5l-0.9,19.6c0,0,4.5-11.6,6.2-11.6S585.5,195.2,582.8,195.2z"/>
<path class="st6" d="M648.6,321l-48.8,13.8v-85.2l6.5,2.1c11.5,3.7,20.5,12.7,24.2,24.2L648.6,321z"/>
<rect x="225" y="644.5" class="st0" width="606.1" height="2"/>
<path class="st0" d="M682.6,483.1c13.3,18.7,16.8,125.3,17.5,159.5c0,0.8,0,1.5,0,2.2h33.5c0.4-0.7,0.8-1.5,1.2-2.2
	c19.9-39.2,8.8-86.3,8.3-88.7c1.5,7.5-5.3,29.2-13,50.2C725.4,539.5,685.2,486.3,682.6,483.1z"/>
</svg>
